<svg width="94" height="17" viewBox="0 0 94 17" fill="none" xmlns="http://www.w3.org/2000/svg">
<path d="M7.83791 1.27907C8.00814 0.934151 8.49999 0.93415 8.67022 1.27907L10.5718 5.132C10.6393 5.26897 10.77 5.3639 10.9212 5.38587L15.1731 6.00371C15.5538 6.05903 15.7058 6.5268 15.4303 6.79529L12.3536 9.79437C12.2442 9.90099 12.1943 10.0546 12.2201 10.2051L12.9464 14.4399C13.0115 14.819 12.6135 15.1081 12.2731 14.9291L8.47002 12.9297C8.33482 12.8587 8.17331 12.8587 8.03811 12.9297L4.23504 14.9291C3.89458 15.1081 3.49667 14.819 3.56169 14.4399L4.28801 10.2051C4.31383 10.0546 4.26392 9.90099 4.15454 9.79437L1.0778 6.79529C0.802362 6.5268 0.954352 6.05903 1.335 6.00371L5.58695 5.38587C5.73811 5.3639 5.86878 5.26897 5.93637 5.132L7.83791 1.27907Z" fill="#6B5A74"/>
<path d="M27.1306 1.27706C27.3009 0.932137 27.7927 0.932136 27.9629 1.27706L29.8645 5.12999C29.9321 5.26695 30.0627 5.36189 30.2139 5.38385L34.4659 6.0017C34.8465 6.05701 34.9985 6.52479 34.7231 6.79327L31.6463 9.79236C31.5369 9.89897 31.487 10.0526 31.5128 10.2031L32.2392 14.4379C32.3042 14.817 31.9063 15.1061 31.5658 14.9271L27.7627 12.9277C27.6275 12.8567 27.466 12.8567 27.3308 12.9277L23.5278 14.9271C23.1873 15.1061 22.7894 14.817 22.8544 14.4379L23.5807 10.2031C23.6066 10.0526 23.5566 9.89897 23.4473 9.79236L20.3705 6.79327C20.0951 6.52479 20.2471 6.05701 20.6277 6.0017L24.8797 5.38385C25.0308 5.36189 25.1615 5.26695 25.2291 5.12999L27.1306 1.27706Z" fill="#6B5A74"/>
<path d="M46.4221 1.27706C46.5924 0.932137 47.0842 0.932136 47.2544 1.27706L49.156 5.12999C49.2236 5.26695 49.3542 5.36189 49.5054 5.38385L53.7574 6.0017C54.138 6.05701 54.29 6.52479 54.0146 6.79327L50.9378 9.79236C50.8284 9.89897 50.7785 10.0526 50.8043 10.2031L51.5307 14.4379C51.5957 14.817 51.1978 15.1061 50.8573 14.9271L47.0542 12.9277C46.919 12.8567 46.7575 12.8567 46.6223 12.9277L42.8193 14.9271C42.4788 15.1061 42.0809 14.817 42.1459 14.4379L42.8722 10.2031C42.8981 10.0526 42.8481 9.89897 42.7388 9.79236L39.662 6.79327C39.3866 6.52479 39.5386 6.05701 39.9192 6.0017L44.1712 5.38385C44.3223 5.36189 44.453 5.26695 44.5206 5.12999L46.4221 1.27706Z" fill="#6B5A74"/>
<path d="M65.7149 1.27706C65.8851 0.932137 66.3769 0.932136 66.5472 1.27706L68.4487 5.12999C68.5163 5.26695 68.647 5.36189 68.7981 5.38385L73.0501 6.0017C73.4307 6.05701 73.5827 6.52479 73.3073 6.79327L70.2305 9.79236C70.1212 9.89897 70.0712 10.0526 70.0971 10.2031L70.8234 14.4379C70.8884 14.817 70.4905 15.1061 70.15 14.9271L66.347 12.9277C66.2118 12.8567 66.0503 12.8567 65.9151 12.9277L62.112 14.9271C61.7715 15.1061 61.3736 14.817 61.4386 14.4379L62.165 10.2031C62.1908 10.0526 62.1409 9.89897 62.0315 9.79236L58.9548 6.79327C58.6793 6.52479 58.8313 6.05701 59.212 6.0017L63.4639 5.38385C63.6151 5.36189 63.7457 5.26695 63.8133 5.12999L65.7149 1.27706Z" fill="#6B5A74"/>
<path d="M85.0069 1.27706C85.1771 0.932137 85.6689 0.932136 85.8392 1.27706L87.7407 5.12999C87.8083 5.26695 87.939 5.36189 88.0901 5.38385L92.3421 6.0017C92.7227 6.05701 92.8747 6.52479 92.5993 6.79327L89.5225 9.79236C89.4131 9.89897 89.3632 10.0526 89.3891 10.2031L90.1154 14.4379C90.1804 14.817 89.7825 15.1061 89.442 14.9271L85.639 12.9277C85.5038 12.8567 85.3423 12.8567 85.2071 12.9277L81.404 14.9271C81.0635 15.1061 80.6656 14.817 80.7306 14.4379L81.457 10.2031C81.4828 10.0526 81.4329 9.89897 81.3235 9.79236L78.2467 6.79327C77.9713 6.52479 78.1233 6.05701 78.5039 6.0017L82.7559 5.38385C82.9071 5.36189 83.0377 5.26695 83.1053 5.12999L85.0069 1.27706Z" fill="#6B5A74"/>
</svg>
